<svg width="26" height="21" viewBox="0 0 26 21" fill="none" xmlns="http://www.w3.org/2000/svg">
<path fill-rule="evenodd" clip-rule="evenodd" d="M15.4117 3.02967C13.133 3.92928 8.57878 5.79126 1.74906 8.6156C0.640015 9.0342 0.0590516 9.44373 0.00616378 9.84416C-0.0832179 10.5209 0.80963 10.7874 2.02546 11.1502C2.19085 11.1996 2.36221 11.2508 2.53788 11.305C3.73408 11.674 5.34317 12.1058 6.17967 12.123C6.93845 12.1385 7.78534 11.8416 8.72033 11.2322C15.1016 7.14365 18.3956 5.07711 18.6024 5.03255C18.7483 5.00112 18.9505 4.9616 19.0874 5.07717C19.2244 5.19274 19.211 5.4116 19.1965 5.47032C19.108 5.82822 15.6032 8.92093 13.7895 10.5214C13.2241 11.0204 12.823 11.3743 12.741 11.4551C12.5574 11.6362 12.3702 11.8074 12.1903 11.9721C11.079 12.9889 10.2456 13.7514 12.2364 14.9966C13.1931 15.595 13.9587 16.0899 14.7224 16.5835C15.5565 17.1227 16.3884 17.6604 17.4648 18.3301C17.739 18.5007 18.0009 18.678 18.256 18.8506C19.2267 19.5074 20.0987 20.0975 21.1761 20.0034C21.8021 19.9487 22.4488 19.39 22.7772 17.7236C23.5533 13.7854 25.0789 5.25249 25.4314 1.7363C25.4623 1.42823 25.4235 1.03397 25.3923 0.860898C25.3611 0.687826 25.2959 0.441236 25.0588 0.258692C24.7782 0.0425054 24.3448 -0.00308316 24.151 0.000157072C23.2698 0.0148906 21.9179 0.461081 15.4117 3.02967Z" fill="white"/>
</svg>
