<svg width="32" height="32" viewBox="0 0 32 32" fill="none" xmlns="http://www.w3.org/2000/svg">
<path fill-rule="evenodd" clip-rule="evenodd" d="M21.4117 3.02967C19.133 3.92928 14.5788 5.79126 7.74906 8.6156C6.64002 9.0342 6.05905 9.44373 6.00616 9.84416C5.91678 10.5209 6.80963 10.7874 8.02546 11.1502C8.19085 11.1996 8.36221 11.2508 8.53789 11.305C9.73408 11.674 11.3432 12.1058 12.1797 12.123C12.9384 12.1385 13.7853 11.8416 14.7203 11.2322C21.1016 7.14365 24.3956 5.07711 24.6024 5.03255C24.7483 5.00112 24.9505 4.9616 25.0874 5.07717C25.2244 5.19274 25.211 5.4116 25.1965 5.47032C25.108 5.82822 21.6032 8.92093 19.7895 10.5214C19.2241 11.0204 18.823 11.3743 18.741 11.4551C18.5574 11.6362 18.3702 11.8074 18.1903 11.9721C17.079 12.9889 16.2456 13.7514 18.2364 14.9966C19.1931 15.595 19.9587 16.0899 20.7224 16.5835C21.5565 17.1227 22.3884 17.6604 23.4648 18.3301C23.739 18.5007 24.0009 18.678 24.256 18.8506C25.2267 19.5074 26.0987 20.0975 27.1761 20.0034C27.8021 19.9487 28.4488 19.39 28.7772 17.7236C29.5533 13.7854 31.0789 5.25249 31.4315 1.7363C31.4623 1.42823 31.4235 1.03397 31.3923 0.860898C31.3611 0.687826 31.2959 0.441236 31.0588 0.258692C30.7782 0.0425054 30.3448 -0.00308316 30.151 0.000157072C29.2698 0.0148906 27.9179 0.461081 21.4117 3.02967Z" fill="white"/>
</svg>
